<svg xmlns="http://www.w3.org/2000/svg" viewBox="0 0 220 7"><path d="M.5 3.5c2.1-3.9 6.4-3.9 8.6 0 2.1 3.9 6.4 3.9 8.6 0 2.1-3.9 6.4-3.9 8.6 0 2.1 3.9 6.4 3.9 8.6 0s6.4-3.9 8.6 0c2.1 3.9 6.4 3.9 8.6 0 2.1-3.9 6.4-3.9 8.6 0 2.2 3.9 6.4 3.9 8.6 0 2.1-3.9 6.4-3.9 8.6 0 2.1 3.9 6.4 3.9 8.6 0s6.4-3.9 8.6 0c2.1 3.9 6.4 3.9 8.6 0 2.1-3.9 6.4-3.9 8.6 0 2.1 3.9 6.4 3.9 8.6 0 2.1-3.9 6.4-3.9 8.6 0 2.1 3.9 6.4 3.9 8.6 0 2.1-3.9 6.4-3.9 8.6 0 2.1 3.9 6.4 3.9 8.6 0 2.1-3.9 6.4-3.9 8.6 0 2.1 3.9 6.4 3.9 8.6 0 2.1-3.9 6.4-3.9 8.6 0 2.2 3.9 6.4 3.9 8.6 0s6.4-3.9 8.6 0c2.1 3.9 6.4 3.9 8.6 0 2.1-3.9 6.4-3.9 8.6 0 2.1 3.9 6.4 3.9 8.6 0" fill="none" stroke="#00bcf1" stroke-width="2"/></svg>
